<svg width="20" height="20" viewBox="0 0 20 20" fill="none" xmlns="http://www.w3.org/2000/svg">
<path d="M17.9166 9.08332V3.41666C17.9166 2.16666 17.3833 1.66666 16.0583 1.66666H12.6916C11.3666 1.66666 10.8333 2.16666 10.8333 3.41666V9.08332C10.8333 10.3333 11.3666 10.8333 12.6916 10.8333H16.0583C17.3833 10.8333 17.9166 10.3333 17.9166 9.08332Z" fill="white"/>
<path d="M9.16665 10.9167V16.5833C9.16665 17.8333 8.63331 18.3333 7.30831 18.3333H3.94165C2.61665 18.3333 2.08331 17.8333 2.08331 16.5833V10.9167C2.08331 9.66666 2.61665 9.16666 3.94165 9.16666H7.30831C8.63331 9.16666 9.16665 9.66666 9.16665 10.9167Z" fill="white"/>
<path d="M17.9166 16.5833V14.25C17.9166 13 17.3833 12.5 16.0583 12.5H12.6916C11.3666 12.5 10.8333 13 10.8333 14.25V16.5833C10.8333 17.8333 11.3666 18.3333 12.6916 18.3333H16.0583C17.3833 18.3333 17.9166 17.8333 17.9166 16.5833Z" fill="white"/>
<path d="M9.16665 5.74999V3.41666C9.16665 2.16666 8.63331 1.66666 7.30831 1.66666H3.94165C2.61665 1.66666 2.08331 2.16666 2.08331 3.41666V5.74999C2.08331 6.99999 2.61665 7.49999 3.94165 7.49999H7.30831C8.63331 7.49999 9.16665 6.99999 9.16665 5.74999Z" fill="white"/>
</svg>
