<svg width="20" height="20" viewBox="0 0 20 20" fill="none" xmlns="http://www.w3.org/2000/svg">
<path d="M7.50002 1.66667C5.31669 1.66667 3.54169 3.44167 3.54169 5.625C3.54169 7.76667 5.21669 9.5 7.40002 9.575C7.46669 9.56667 7.53335 9.56667 7.58335 9.575C7.60002 9.575 7.60835 9.575 7.62502 9.575C7.63335 9.575 7.63335 9.575 7.64169 9.575C9.77502 9.5 11.45 7.76667 11.4584 5.625C11.4584 3.44167 9.68335 1.66667 7.50002 1.66667Z" fill="#6D7C90"/>
<path d="M11.7334 11.7917C9.40836 10.2417 5.61669 10.2417 3.27503 11.7917C2.2167 12.5 1.63336 13.4583 1.63336 14.4833C1.63336 15.5083 2.2167 16.4583 3.2667 17.1583C4.43336 17.9417 5.96669 18.3333 7.50003 18.3333C9.03336 18.3333 10.5667 17.9417 11.7334 17.1583C12.7834 16.45 13.3667 15.5 13.3667 14.4667C13.3584 13.4417 12.7834 12.4917 11.7334 11.7917Z" fill="#6D7C90"/>
<path d="M16.6584 6.11667C16.7917 7.73333 15.6417 9.15 14.05 9.34167C14.0417 9.34167 14.0417 9.34167 14.0334 9.34167H14.0084C13.9584 9.34167 13.9084 9.34167 13.8667 9.35833C13.0584 9.4 12.3167 9.14167 11.7584 8.66667C12.6167 7.9 13.1084 6.75 13.0084 5.5C12.95 4.825 12.7167 4.20833 12.3667 3.68333C12.6834 3.525 13.05 3.425 13.425 3.39167C15.0584 3.25 16.5167 4.46667 16.6584 6.11667Z" fill="#6D7C90"/>
<path d="M18.325 13.825C18.2583 14.6333 17.7417 15.3333 16.875 15.8083C16.0417 16.2667 14.9917 16.4833 13.95 16.4583C14.55 15.9167 14.9 15.2417 14.9667 14.525C15.05 13.4917 14.5583 12.5 13.575 11.7083C13.0167 11.2667 12.3667 10.9167 11.6583 10.6583C13.5 10.125 15.8167 10.4833 17.2417 11.6333C18.0083 12.25 18.4 13.025 18.325 13.825Z" fill="#6D7C90"/>
</svg>
