<svg width="20" height="20" viewBox="0 0 20 20" fill="none" xmlns="http://www.w3.org/2000/svg">
<path d="M14.1667 2.91667H5.83335C3.33335 2.91667 1.66669 4.16667 1.66669 7.08334V12.9167C1.66669 15.8333 3.33335 17.0833 5.83335 17.0833H14.1667C16.6667 17.0833 18.3334 15.8333 18.3334 12.9167V7.08334C18.3334 4.16667 16.6667 2.91667 14.1667 2.91667ZM14.5584 7.99167L11.95 10.075C11.4 10.5167 10.7 10.7333 10 10.7333C9.30002 10.7333 8.59169 10.5167 8.05002 10.075L5.44169 7.99167C5.17502 7.77501 5.13335 7.37501 5.34169 7.10834C5.55835 6.84167 5.95002 6.79167 6.21669 7.00834L8.82502 9.09167C9.45835 9.60001 10.5334 9.60001 11.1667 9.09167L13.775 7.00834C14.0417 6.79167 14.4417 6.83334 14.65 7.10834C14.8667 7.37501 14.825 7.77501 14.5584 7.99167Z" fill="#6D7C90"/>
</svg>
