<svg width="20" height="20" viewBox="0 0 20 20" fill="none" xmlns="http://www.w3.org/2000/svg">
<path d="M13.9583 2.96666V1.66666C13.9583 1.32499 13.675 1.04166 13.3333 1.04166C12.9917 1.04166 12.7083 1.32499 12.7083 1.66666V2.91666H7.29166V1.66666C7.29166 1.32499 7.00832 1.04166 6.66666 1.04166C6.32499 1.04166 6.04165 1.32499 6.04165 1.66666V2.96666C3.79165 3.17499 2.69999 4.51666 2.53332 6.50832C2.51665 6.74999 2.71665 6.94999 2.94999 6.94999H17.05C17.2917 6.94999 17.4917 6.74166 17.4667 6.50832C17.3 4.51666 16.2083 3.17499 13.9583 2.96666Z" fill="#6D7C90"/>
<path d="M16.6667 8.20001H3.33333C2.875 8.20001 2.5 8.57501 2.5 9.03335V14.1667C2.5 16.6667 3.75 18.3333 6.66667 18.3333H13.3333C16.25 18.3333 17.5 16.6667 17.5 14.1667V9.03335C17.5 8.57501 17.125 8.20001 16.6667 8.20001ZM7.675 15.175C7.63333 15.2083 7.59167 15.25 7.55 15.275C7.5 15.3083 7.45 15.3333 7.4 15.35C7.35 15.375 7.3 15.3917 7.25 15.4C7.19167 15.4083 7.14167 15.4167 7.08333 15.4167C6.975 15.4167 6.86667 15.3917 6.76667 15.35C6.65833 15.3083 6.575 15.25 6.49167 15.175C6.34167 15.0167 6.25 14.8 6.25 14.5833C6.25 14.3667 6.34167 14.15 6.49167 13.9917C6.575 13.9167 6.65833 13.8583 6.76667 13.8167C6.91667 13.75 7.08333 13.7333 7.25 13.7667C7.3 13.775 7.35 13.7917 7.4 13.8167C7.45 13.8333 7.5 13.8583 7.55 13.8917C7.59167 13.925 7.63333 13.9583 7.675 13.9917C7.825 14.15 7.91667 14.3667 7.91667 14.5833C7.91667 14.8 7.825 15.0167 7.675 15.175ZM7.675 12.2583C7.51667 12.4083 7.3 12.5 7.08333 12.5C6.86667 12.5 6.65 12.4083 6.49167 12.2583C6.34167 12.1 6.25 11.8833 6.25 11.6667C6.25 11.45 6.34167 11.2333 6.49167 11.075C6.725 10.8417 7.09167 10.7667 7.4 10.9C7.50833 10.9417 7.6 11 7.675 11.075C7.825 11.2333 7.91667 11.45 7.91667 11.6667C7.91667 11.8833 7.825 12.1 7.675 12.2583ZM10.5917 15.175C10.4333 15.325 10.2167 15.4167 10 15.4167C9.78333 15.4167 9.56667 15.325 9.40833 15.175C9.25833 15.0167 9.16667 14.8 9.16667 14.5833C9.16667 14.3667 9.25833 14.15 9.40833 13.9917C9.71667 13.6833 10.2833 13.6833 10.5917 13.9917C10.7417 14.15 10.8333 14.3667 10.8333 14.5833C10.8333 14.8 10.7417 15.0167 10.5917 15.175ZM10.5917 12.2583C10.55 12.2917 10.5083 12.325 10.4667 12.3583C10.4167 12.3917 10.3667 12.4167 10.3167 12.4333C10.2667 12.4583 10.2167 12.475 10.1667 12.4833C10.1083 12.4917 10.0583 12.5 10 12.5C9.78333 12.5 9.56667 12.4083 9.40833 12.2583C9.25833 12.1 9.16667 11.8833 9.16667 11.6667C9.16667 11.45 9.25833 11.2333 9.40833 11.075C9.48333 11 9.575 10.9417 9.68333 10.9C9.99167 10.7667 10.3583 10.8417 10.5917 11.075C10.7417 11.2333 10.8333 11.45 10.8333 11.6667C10.8333 11.8833 10.7417 12.1 10.5917 12.2583ZM13.5083 15.175C13.35 15.325 13.1333 15.4167 12.9167 15.4167C12.7 15.4167 12.4833 15.325 12.325 15.175C12.175 15.0167 12.0833 14.8 12.0833 14.5833C12.0833 14.3667 12.175 14.15 12.325 13.9917C12.6333 13.6833 13.2 13.6833 13.5083 13.9917C13.6583 14.15 13.75 14.3667 13.75 14.5833C13.75 14.8 13.6583 15.0167 13.5083 15.175ZM13.5083 12.2583C13.4667 12.2917 13.425 12.325 13.3833 12.3583C13.3333 12.3917 13.2833 12.4167 13.2333 12.4333C13.1833 12.4583 13.1333 12.475 13.0833 12.4833C13.025 12.4917 12.9667 12.5 12.9167 12.5C12.7 12.5 12.4833 12.4083 12.325 12.2583C12.175 12.1 12.0833 11.8833 12.0833 11.6667C12.0833 11.45 12.175 11.2333 12.325 11.075C12.4083 11 12.4917 10.9417 12.6 10.9C12.75 10.8333 12.9167 10.8167 13.0833 10.85C13.1333 10.8583 13.1833 10.875 13.2333 10.9C13.2833 10.9167 13.3333 10.9417 13.3833 10.975C13.425 11.0083 13.4667 11.0417 13.5083 11.075C13.6583 11.2333 13.75 11.45 13.75 11.6667C13.75 11.8833 13.6583 12.1 13.5083 12.2583Z" fill="#6D7C90"/>
</svg>
