<svg width="20" height="20" viewBox="0 0 20 20" fill="none" xmlns="http://www.w3.org/2000/svg">
<path d="M16.75 7.68333C15.2417 7.68333 14.625 6.61667 15.375 5.30833C15.8084 4.55 15.55 3.58333 14.7917 3.15L13.35 2.325C12.6917 1.93333 11.8417 2.16667 11.45 2.825L11.3584 2.98333C10.6084 4.29167 9.37502 4.29167 8.61669 2.98333L8.52502 2.825C8.15002 2.16667 7.30002 1.93333 6.64169 2.325L5.20002 3.15C4.44169 3.58333 4.18335 4.55833 4.61669 5.31667C5.37502 6.61667 4.75835 7.68333 3.25002 7.68333C2.38335 7.68333 1.66669 8.39167 1.66669 9.26667V10.7333C1.66669 11.6 2.37502 12.3167 3.25002 12.3167C4.75835 12.3167 5.37502 13.3833 4.61669 14.6917C4.18335 15.45 4.44169 16.4167 5.20002 16.85L6.64169 17.675C7.30002 18.0667 8.15002 17.8333 8.54169 17.175L8.63335 17.0167C9.38335 15.7083 10.6167 15.7083 11.375 17.0167L11.4667 17.175C11.8584 17.8333 12.7084 18.0667 13.3667 17.675L14.8084 16.85C15.5667 16.4167 15.825 15.4417 15.3917 14.6917C14.6334 13.3833 15.25 12.3167 16.7584 12.3167C17.625 12.3167 18.3417 11.6083 18.3417 10.7333V9.26667C18.3334 8.4 17.625 7.68333 16.75 7.68333ZM10 12.7083C8.50835 12.7083 7.29169 11.4917 7.29169 10C7.29169 8.50833 8.50835 7.29167 10 7.29167C11.4917 7.29167 12.7084 8.50833 12.7084 10C12.7084 11.4917 11.4917 12.7083 10 12.7083Z" fill="#6D7C90"/>
</svg>
