<svg width="177" height="38" viewBox="0 0 177 38" fill="none" xmlns="http://www.w3.org/2000/svg">
<path d="M28.344 16.9366C27.8648 17.4196 27.498 18.0025 27.2694 18.6437C27.0408 19.285 26.9562 19.9689 27.0216 20.6467L26.9988 20.6239C27.0661 21.4217 26.9586 22.2246 26.6841 22.9766C26.4097 23.7285 25.9747 24.4113 25.4097 24.9775C24.8446 25.5436 24.163 25.9795 23.4124 26.2543C22.6619 26.5293 21.8605 26.637 21.0643 26.5696L21.087 26.5924C20.1345 26.5036 19.1778 26.7112 18.3473 27.1871C17.5169 27.663 16.8532 28.3838 16.4467 29.2515C16.0402 30.1192 15.9106 31.0912 16.0758 32.0354C16.241 32.9794 16.6927 33.8495 17.3695 34.5269C18.0463 35.2043 18.9151 35.6562 19.8575 35.8207C20.8 35.9854 21.7701 35.8546 22.6358 35.4466C23.5014 35.0385 24.2203 34.373 24.6945 33.5406C25.1688 32.7081 25.3752 31.7495 25.2857 30.7952L25.3097 30.818C25.2425 30.0203 25.3498 29.2173 25.6243 28.4653C25.8988 27.7134 26.3338 27.0305 26.8988 26.4643C27.4639 25.8983 28.1455 25.4624 28.896 25.1875C29.6466 24.9125 30.4479 24.8049 31.2443 24.8723L31.2203 24.8495C31.9983 24.9195 32.7815 24.7917 33.4972 24.4778C34.2128 24.1639 34.8379 23.6741 35.3143 23.0538C35.7907 22.4335 36.1032 21.7027 36.2225 20.9293C36.342 20.1557 36.2646 19.3645 35.9976 18.6289C35.7306 17.8933 35.2825 17.2372 34.695 16.7213C34.1075 16.2054 33.3995 15.8464 32.6366 15.6777C31.8738 15.5089 31.0807 15.5358 30.331 15.7558C29.5812 15.976 28.8992 16.3821 28.3478 16.9366H28.344Z" fill="#3649F9"/>
<path d="M19.0174 23.6056L18.9933 23.5828C19.6701 23.6511 20.3536 23.5679 20.9944 23.3391C21.6352 23.1103 22.2173 22.7419 22.6985 22.2602C23.1795 21.7784 23.5479 21.1955 23.7766 20.5537C24.0055 19.9119 24.089 19.2273 24.0214 18.5491L24.0454 18.5719C23.9782 17.774 24.0856 16.9712 24.36 16.2192C24.6345 15.4673 25.0695 14.7844 25.6345 14.2182C26.1996 13.6521 26.8812 13.2163 27.6317 12.9414C28.3823 12.6664 29.1836 12.5588 29.98 12.6261L29.956 12.6033C30.9086 12.693 31.8655 12.486 32.6964 12.0107C33.5274 11.5353 34.1917 10.8148 34.5988 9.94727C35.0059 9.07978 35.136 8.10758 34.9714 7.16326C34.8068 6.21895 34.3554 5.34852 33.6788 4.67068C33.0023 3.99285 32.1334 3.5406 31.1909 3.37565C30.2484 3.21069 29.278 3.34105 28.4121 3.74894C27.5462 4.15682 26.8271 4.82239 26.3526 5.65485C25.8781 6.48731 25.6715 7.44614 25.7611 8.40054L25.7383 8.37648C25.8057 9.17434 25.6985 9.97733 25.4241 10.7294C25.1498 11.4814 24.7147 12.1644 24.1497 12.7306C23.5846 13.2967 22.9029 13.7326 22.1523 14.0074C21.4015 14.2823 20.6001 14.3897 19.8037 14.3222L19.8265 14.3463C19.1497 14.278 18.4661 14.3612 17.8254 14.59C17.1846 14.8186 16.6026 15.1872 16.1214 15.6689C15.6402 16.1506 15.2719 16.7336 15.0431 17.3754C14.8144 18.0172 14.7308 18.7018 14.7984 19.38L14.7757 19.3572C14.8427 20.155 14.7351 20.9578 14.4606 21.7097C14.186 22.4614 13.7511 23.1443 13.1861 23.7104C12.621 24.2764 11.9395 24.7122 11.1891 24.9873C10.4387 25.2623 9.63738 25.3701 8.84112 25.3029L8.86388 25.3257C7.91127 25.2361 6.95424 25.443 6.12334 25.9184C5.29245 26.3938 4.62813 27.1143 4.22102 27.9818C3.81389 28.8494 3.68377 29.8215 3.84842 30.7658C4.01307 31.7101 4.46447 32.5806 5.14103 33.2584C5.8176 33.9363 6.68639 34.3885 7.62893 34.5534C8.57146 34.7183 9.54184 34.588 10.4077 34.1801C11.2736 33.7723 11.9928 33.1068 12.4672 32.2743C12.9417 31.4417 13.1483 30.483 13.0588 29.5285L13.0828 29.5513C13.0155 28.7535 13.123 27.9507 13.3975 27.1986C13.6718 26.4467 14.1069 25.7639 14.6719 25.1977C15.237 24.6316 15.9186 24.1957 16.6691 23.9209C17.4197 23.6459 18.221 23.5382 19.0174 23.6056Z" fill="#3649F9"/>
<path d="M10.5441 21.0634C11.0233 20.5805 11.3902 19.9976 11.6186 19.3563C11.847 18.715 11.9312 18.031 11.8653 17.3533L11.8893 17.3761C11.8221 16.5781 11.9295 15.7749 12.2041 15.0228C12.4787 14.2706 12.9139 13.5876 13.4793 13.0214C14.0447 12.4553 14.7265 12.0196 15.4774 11.7447C16.2282 11.4699 17.0299 11.3626 17.8264 11.4304L17.8024 11.4076C18.7547 11.497 19.7113 11.2899 20.5419 10.8146C21.3724 10.3393 22.0362 9.6189 22.4432 8.75168C22.8501 7.88444 22.98 6.91259 22.8154 5.96863C22.6508 5.02468 22.1995 4.15458 21.5232 3.47699C20.8469 2.7994 19.9784 2.3473 19.0362 2.18235C18.0941 2.01739 17.124 2.14763 16.2585 2.55527C15.3928 2.96291 14.6738 3.62812 14.1994 4.4602C13.7249 5.29227 13.5182 6.25071 13.6075 7.20479L13.5847 7.18199C13.652 7.9798 13.5445 8.7827 13.2701 9.53464C12.9956 10.2866 12.5607 10.9695 11.9956 11.5356C11.4305 12.1018 10.7489 12.5375 9.9984 12.8124C9.24787 13.0874 8.44649 13.1951 7.65018 13.1277L7.67294 13.1505C6.89486 13.0806 6.11175 13.2087 5.39619 13.5227C4.68063 13.8367 4.05575 14.3266 3.57948 14.947C3.10322 15.5673 2.79096 16.2982 2.67164 17.0716C2.55233 17.8452 2.62982 18.6363 2.89692 19.3718C3.16403 20.1073 3.61213 20.7633 4.19968 21.2791C4.78723 21.795 5.49523 22.1539 6.25808 22.3226C7.02091 22.4912 7.81391 22.4642 8.56359 22.2442C9.31326 22.024 9.99534 21.6179 10.5466 21.0634H10.5441Z" fill="#3649F9"/>
<path d="M49.7079 8.42966H53.4629V26.7368H49.7079V8.42966Z" fill="#3E435D"/>
<path d="M55.5894 20.4681C55.5842 19.1525 55.9688 17.8648 56.6945 16.7684C57.4202 15.672 58.4544 14.816 59.6661 14.3089C60.8778 13.8017 62.2124 13.6663 63.5009 13.9198C64.7895 14.1732 65.974 14.804 66.9044 15.7325C67.8348 16.6609 68.4692 17.8451 68.7274 19.135C68.9855 20.425 68.8557 21.7627 68.3544 22.9787C67.8531 24.1946 67.0029 25.2343 65.9114 25.9657C64.8198 26.6972 63.5363 27.0877 62.2231 27.0877C61.3515 27.0977 60.4866 26.9334 59.679 26.6046C58.8714 26.2757 58.1373 25.789 57.5197 25.1727C56.902 24.5564 56.4132 23.8228 56.0819 23.0151C55.7504 22.2073 55.583 21.3414 55.5894 20.4681ZM65.1019 20.4681C65.0862 19.901 64.904 19.3511 64.5782 18.8871C64.2523 18.4233 63.7972 18.0658 63.2697 17.8598C62.7421 17.6535 62.1657 17.6077 61.6123 17.728C61.059 17.8484 60.5533 18.1293 60.1584 18.536C59.7637 18.9426 59.4972 19.4569 59.3926 20.0145C59.288 20.5719 59.3495 21.148 59.5699 21.6706C59.7903 22.1933 60.1594 22.6391 60.6313 22.9526C61.1032 23.2661 61.657 23.4333 62.2231 23.4333C62.6109 23.4437 62.9966 23.3734 63.356 23.227C63.7154 23.0806 64.0405 22.8612 64.311 22.5826C64.5814 22.304 64.7914 21.9722 64.9274 21.6083C65.0636 21.2444 65.123 20.8562 65.1019 20.4681Z" fill="#3E435D"/>
<path d="M83.8221 14.1981V26.1047C83.8221 30.3177 80.5426 32.0986 77.2137 32.0986C76.0417 32.1865 74.8681 31.9493 73.8216 31.4131C72.7753 30.8768 71.8965 30.0622 71.2817 29.0586L74.4854 27.2029C74.7438 27.7261 75.1556 28.1576 75.6655 28.44C76.1755 28.7222 76.7593 28.8418 77.3389 28.7825C77.7093 28.8339 78.0866 28.8012 78.4427 28.6868C78.7987 28.5725 79.1247 28.3793 79.3963 28.1218C79.6678 27.8641 79.8781 27.5487 80.0116 27.1986C80.145 26.8487 80.1981 26.4731 80.1671 26.0997V24.9533C79.7274 25.4923 79.1678 25.9206 78.533 26.2037C77.8982 26.4868 77.2061 26.6169 76.512 26.5835C74.8606 26.5314 73.2943 25.8375 72.1446 24.6486C70.9948 23.4598 70.3519 21.8694 70.3519 20.2141C70.3519 18.5588 70.9948 16.9684 72.1446 15.7796C73.2943 14.5907 74.8606 13.8969 76.512 13.8447C77.2061 13.8114 77.8982 13.9414 78.533 14.2245C79.1678 14.5076 79.7274 14.9359 80.1671 15.4749V14.1955L83.8221 14.1981ZM80.1683 20.216C80.1936 19.6098 80.0371 19.0098 79.7191 18.4933C79.4012 17.9768 78.9362 17.5675 78.3841 17.3181C77.8319 17.0686 77.218 16.9904 76.6211 17.0935C76.0243 17.1967 75.4719 17.4763 75.035 17.8967C74.5982 18.317 74.2969 18.8586 74.1698 19.452C74.0429 20.0453 74.096 20.6631 74.3225 21.2259C74.549 21.7887 74.9384 22.2708 75.4406 22.61C75.9427 22.9492 76.5348 23.1301 77.1404 23.1293C77.535 23.157 77.9308 23.1015 78.3026 22.9664C78.6745 22.8314 79.0139 22.6198 79.2992 22.3454C79.5844 22.0709 79.8092 21.7397 79.9589 21.3729C80.1086 21.0062 80.18 20.6121 80.1683 20.216Z" fill="#3E435D"/>
<path d="M85.9487 20.4681C85.9435 19.1525 86.328 17.8648 87.0538 16.7684C87.7795 15.672 88.8137 14.816 90.0253 14.3089C91.237 13.8017 92.5716 13.6663 93.8602 13.9198C95.1487 14.1732 96.3333 14.804 97.2636 15.7325C98.194 16.6609 98.8284 17.8451 99.0866 19.135C99.3448 20.425 99.2149 21.7627 98.7136 22.9787C98.2124 24.1946 97.3621 25.2343 96.2707 25.9657C95.1791 26.6972 93.8956 27.0877 92.5824 27.0877C91.7108 27.0977 90.8457 26.9334 90.0382 26.6046C89.2306 26.2757 88.4966 25.789 87.879 25.1727C87.2612 24.5564 86.7725 23.8228 86.4411 23.0151C86.1096 22.2073 85.9422 21.3414 85.9487 20.4681ZM95.4611 20.4681C95.4455 19.901 95.2633 19.3511 94.9375 18.8871C94.6115 18.4233 94.1564 18.0658 93.6289 17.8598C93.1014 17.6535 92.5248 17.6077 91.9716 17.728C91.4182 17.8484 90.9125 18.1293 90.5177 18.536C90.123 18.9426 89.8564 19.4569 89.7518 20.0145C89.6471 20.5719 89.7088 21.148 89.9291 21.6706C90.1495 22.1933 90.5187 22.6391 90.9905 22.9526C91.4625 23.2661 92.0161 23.4333 92.5824 23.4333C92.9701 23.4437 93.3559 23.3734 93.7152 23.227C94.0746 23.0806 94.3998 22.8612 94.6702 22.5826C94.9406 22.304 95.1506 21.9722 95.2867 21.6083C95.4228 21.2444 95.4823 20.8562 95.4611 20.4681Z" fill="#3E435D"/>
<path d="M100.967 10.8376C100.967 10.3911 101.099 9.95474 101.347 9.58356C101.594 9.21236 101.946 8.92304 102.358 8.75221C102.77 8.58136 103.223 8.53666 103.66 8.62376C104.097 8.71085 104.498 8.92583 104.813 9.24151C105.128 9.55718 105.343 9.95937 105.43 10.3972C105.517 10.8351 105.472 11.2889 105.302 11.7014C105.131 12.1138 104.842 12.4664 104.472 12.7144C104.101 12.9624 103.666 13.0948 103.22 13.0948C102.624 13.0888 102.055 12.8492 101.634 12.4271C101.212 12.0051 100.973 11.4344 100.967 10.8376ZM101.346 14.1981H105.103V26.7381H101.341L101.346 14.1981Z" fill="#3E435D"/>
<path d="M121.316 20.4681C121.359 21.2968 121.239 22.126 120.961 22.9079C120.684 23.6898 120.254 24.409 119.698 25.0243C119.143 25.6394 118.471 26.1384 117.721 26.4926C116.972 26.8466 116.161 27.0489 115.333 27.0877C114.637 27.1257 113.942 27.0081 113.297 26.7435C112.652 26.4788 112.074 26.0737 111.605 25.5575V31.7528H107.85V14.1981H111.605V15.3761C112.074 14.8603 112.652 14.4554 113.297 14.1911C113.942 13.9266 114.637 13.8092 115.333 13.8472C116.161 13.8858 116.973 14.088 117.722 14.4421C118.471 14.7963 119.143 15.2954 119.699 15.9107C120.255 16.5261 120.684 17.2455 120.962 18.0277C121.239 18.8097 121.36 19.6392 121.316 20.4681ZM117.561 20.4681C117.546 19.8812 117.359 19.3117 117.023 18.8308C116.687 18.3499 116.217 17.9791 115.671 17.7647C115.126 17.5503 114.529 17.5018 113.956 17.6254C113.383 17.7489 112.86 18.039 112.451 18.4593C112.042 18.8797 111.765 19.4114 111.656 19.9884C111.548 20.5652 111.611 21.1613 111.839 21.7023C112.066 22.2433 112.448 22.7049 112.936 23.0295C113.425 23.354 113.997 23.5272 114.583 23.5271C114.986 23.545 115.387 23.4775 115.762 23.3291C116.136 23.1808 116.475 22.9547 116.756 22.6659C117.037 22.3769 117.254 22.0319 117.393 21.6532C117.532 21.2744 117.589 20.8705 117.561 20.4681Z" fill="#3E435D"/>
<path d="M132.903 22.9748C132.903 25.859 130.401 27.0877 127.698 27.0877C126.606 27.1867 125.509 26.9554 124.55 26.4233C123.59 25.8913 122.812 25.0832 122.316 24.1034L125.569 22.2477C125.7 22.7006 125.983 23.0946 126.37 23.3638C126.756 23.6331 127.224 23.7614 127.693 23.7272C128.593 23.7272 129.044 23.4511 129.044 22.9507C129.044 21.5701 122.886 22.2984 122.886 17.9601C122.886 15.2253 125.19 13.8472 127.793 13.8472C128.771 13.8162 129.74 14.0487 130.598 14.5206C131.457 14.9925 132.173 15.6864 132.673 16.53L129.469 18.2603C129.329 17.9318 129.095 17.652 128.797 17.4558C128.498 17.2596 128.149 17.1557 127.793 17.157C127.142 17.157 126.741 17.4103 126.741 17.8587C126.746 19.2888 132.903 18.335 132.903 22.9748Z" fill="#3E435D"/>
<path d="M146.619 14.1981V26.7381H142.864V25.5588C142.431 26.0791 141.881 26.4892 141.259 26.7552C140.637 27.0212 139.962 27.1355 139.286 27.0889C136.758 27.0889 134.609 25.2839 134.609 21.8956V14.1981H138.363V21.3446C138.332 21.6433 138.366 21.9452 138.463 22.2294C138.559 22.5136 138.717 22.7733 138.925 22.9902C139.132 23.2072 139.384 23.3763 139.663 23.4859C139.941 23.5955 140.241 23.6428 140.541 23.6246C141.917 23.6246 142.868 22.8228 142.868 21.0419V14.2019L146.619 14.1981Z" fill="#3E435D"/>
<path d="M168.15 19.038V26.7368H164.395V19.3635C164.395 18.1095 163.794 17.3077 162.593 17.3077C161.342 17.3077 160.64 18.1855 160.64 19.665V26.7368H156.886V19.3635C156.886 18.1095 156.286 17.3077 155.084 17.3077C153.832 17.3077 153.132 18.1855 153.132 19.665V26.7368H149.377V14.1968H153.132V15.3495C153.521 14.8381 154.032 14.4325 154.617 14.1699C155.204 13.9072 155.846 13.7959 156.486 13.8459C157.128 13.8144 157.768 13.9503 158.343 14.2402C158.917 14.5301 159.406 14.9643 159.764 15.5002C160.18 14.9394 160.731 14.4936 161.366 14.2043C162 13.915 162.698 13.7917 163.394 13.8459C166.267 13.8472 168.15 15.903 168.15 19.038Z" fill="#3E435D"/>
<path d="M171.326 14.1208C172.865 14.1208 174.112 12.8708 174.112 11.3291C174.112 9.78722 172.865 8.53732 171.326 8.53732C169.787 8.53732 168.539 9.78722 168.539 11.3291C168.539 12.8708 169.787 14.1208 171.326 14.1208Z" fill="#3E435D"/>
</svg>
